<svg width="390" height="49" viewBox="0 0 390 49" fill="none" xmlns="http://www.w3.org/2000/svg">
<path d="M61.7909 1.35402V47.3898H51.4441V11.6199L36.4418 47.3898H25.3491L10.3468 11.7253V47.3898H0V1.35402H16.7271L30.8638 36.2425L45.0638 1.35402" fill="#F7F4F2"/>
<path d="M359.986 1.35402H371.425L351.193 47.3898H338.95L318.716 1.35402H330.328L345.206 36.6278" fill="#F7F4F2"/>
<path d="M293.485 37.9983C296.474 37.9983 299.043 37.4569 301.188 36.3717C303.332 35.2865 304.992 33.7214 306.16 31.6764C307.327 29.6306 307.913 27.1956 307.913 24.3715C307.913 21.5482 307.327 19.1124 306.16 17.0674C304.992 15.0224 303.332 13.4573 301.188 12.3721C299.043 11.2869 296.474 10.7454 293.485 10.7454C290.536 10.7454 287.986 11.2869 285.841 12.3721C283.696 13.4573 282.029 15.0224 280.84 17.0674C279.651 19.1124 279.058 21.5482 279.058 24.3715C279.058 27.1956 279.651 29.6306 280.84 31.6764C282.029 33.7214 283.696 35.2865 285.841 36.3717C287.986 37.4569 290.536 37.9983 293.485 37.9983ZM293.485 48.3719C288.427 48.3719 283.991 47.3698 280.179 45.364C276.366 43.3582 273.407 40.5563 271.298 36.9547C269.19 33.353 268.137 29.1591 268.137 24.3715C268.137 19.5839 269.19 15.3908 271.298 11.7891C273.407 8.18666 276.366 5.38562 280.179 3.37982C283.991 1.37402 288.427 0.371887 293.485 0.371887C298.543 0.371887 302.98 1.37402 306.792 3.37982C310.604 5.38562 313.574 8.18666 315.701 11.7891C317.828 15.3908 318.891 19.5839 318.891 24.3715C318.891 29.1591 317.828 33.353 315.701 36.9547C313.574 40.5563 310.604 43.3582 306.792 45.364C302.98 47.3698 298.543 48.3719 293.485 48.3719Z" fill="#F7F4F2"/>
<path d="M245.903 21.6097C247.933 21.6097 249.542 21.1075 250.731 20.1061C251.92 19.104 252.513 17.7011 252.513 15.9015C252.513 14.1018 251.92 12.6982 250.731 11.6968C249.542 10.6947 247.933 10.1925 245.903 10.1925H233.085V47.3898H222.221V1.35402H247.339C250.558 1.35402 253.375 1.96776 255.789 3.19523C258.203 4.42271 260.081 6.12164 261.422 8.28972C262.763 10.4578 263.434 12.9966 263.434 15.9015C263.434 18.7663 262.763 21.2828 261.422 23.4509C260.081 25.619 258.203 27.3071 255.789 28.5146C254.594 29.1137 253.301 29.5629 251.909 29.8628L264.813 47.3898H252.225L239.933 30.3258H239.931V21.6097" fill="#F7F4F2"/>
<path d="M213.269 20.0753V28.6684H188.766L187.366 37.9368H215.108V47.3898H175.678L179.012 24.3715L175.678 1.35402H214.821V10.807H187.366L188.766 20.0753" fill="#F7F4F2"/>
<path d="M160.076 42.0799C158.276 44.0242 156.052 45.5593 153.408 46.6837C150.764 47.8081 147.679 48.3719 144.154 48.3719C140.782 48.3719 137.631 47.8389 134.699 46.7752C131.767 45.7124 129.191 44.1472 126.968 42.0799C124.745 40.0126 123.02 37.4961 121.794 34.5305C120.569 31.5641 119.955 28.177 119.955 24.3715C119.955 20.566 120.577 17.1789 121.824 14.2133C123.07 11.2469 124.812 8.73041 127.054 6.66309C129.296 4.59653 131.921 3.03142 134.929 1.96776C137.936 0.90487 141.223 0.371887 144.787 0.371887C149.424 0.371887 153.456 1.15021 156.885 2.70455C160.316 4.25889 163.075 6.38698 165.163 9.08804C167.251 11.7891 168.583 14.8993 169.158 18.4179H158.179C157.795 16.699 156.99 15.2154 155.765 13.968C154.54 12.7205 152.996 11.7691 151.138 11.1138C149.28 10.4578 147.161 10.1317 144.787 10.1317C141.913 10.1317 139.441 10.6731 137.371 11.7583C135.302 12.8435 133.693 14.4394 132.543 16.546C131.394 18.6525 130.819 21.2613 130.819 24.3715C130.819 27.4825 131.422 30.122 132.63 32.2901C133.837 34.4582 135.561 36.0956 137.803 37.2C140.044 38.3052 142.679 38.8574 145.706 38.8574C148.656 38.8574 151.253 38.386 153.494 37.4461C155.736 36.5055 157.518 35.155 158.84 33.3945C159.148 32.9846 159.427 32.5554 159.673 32.1055H146.971V23.8808H169.56V47.3898H161.8L161.256 40.6879" fill="#F7F4F2"/>
<path d="M100.131 1.35402L120.019 47.3898H108.465L104.625 38.1206H86.1888L90.0458 28.7915H100.757L93.0635 10.2325L77.7142 47.3898H66.1609L86.0492 1.35402" fill="#F7F4F2"/>
<circle cx="381.925" cy="8.85402" r="7.5" fill="#C60303"/>
</svg>
